# xmcd
#
# Track frame offsets: 
#        150
#        11455
#        23193
#        37235
#        51875
#        63643
#        76518
#        88455
#        98753
#        111768
#        124648
#        139248
#        153433
#        167538
#        179520
#        193328
#        206068
#        232300
#        242065
#        258630
#
# Disc length: 3647 seconds
#
# Revision: 4
# Processed by: cddbd v1.5.2PL0 Copyright (c) Steve Scherf et al.
# Submitted via: ExactAudioCopy v0.99pb5
#
DISCID=210e3d14
DTITLE=Freddy King - Hide Away: The Best Of Freddy King
DYEAR=1993
DGENRE=Blues
TTITLE0=Country Boy
TTITLE1=That's What You Think
TTITLE2=Have You Ever Loved A Woman
TTITLE3=You've Got To Love Her With A Feeling
TTITLE4=Hide Away
TTITLE5=I Love The Woman
TTITLE6=San-Ho-Zay
TTITLE7=See See Baby
TTITLE8=Sen-Sa-Shun
TTITLE9=Lonesome Whistle Blues
TTITLE10=The Stumble
TTITLE11=It's Too Bad Things Are Going So Tough
TTITLE12=In The Open
TTITLE13=I'm Tore Down
TTITLE14=High Rise
TTITLE15=Someday After Awhile (You'll Be Sorry)
TTITLE16=Remington Ride
TTITLE17=My Feeling For The Blues
TTITLE18=Palace Of The King
TTITLE19=Going Down
EXTD=YEAR: 1993 ID3G: 0
EXTT0=
EXTT1=
EXTT2=
EXTT3=
EXTT4=
EXTT5=
EXTT6=
EXTT7=
EXTT8=
EXTT9=
EXTT10=
EXTT11=
EXTT12=
EXTT13=
EXTT14=
EXTT15=
EXTT16=
EXTT17=
EXTT18=
EXTT19=
PLAYORDER=
